<?xml version="1.0" encoding="UTF-8" standalone="no"?>
<!-- Created with Inkscape (http://www.inkscape.org/) -->

<svg
   width="87.468124mm"
   height="87.468002mm"
   viewBox="0 0 87.468124 87.468003"
   version="1.1"
   id="svg1"
   xml:space="preserve"
   inkscape:version="1.3 (0e150ed, 2023-07-21)"
   sodipodi:docname="trigTable.svg"
   xmlns:inkscape="http://www.inkscape.org/namespaces/inkscape"
   xmlns:sodipodi="http://sodipodi.sourceforge.net/DTD/sodipodi-0.dtd"
   xmlns="http://www.w3.org/2000/svg"
   xmlns:svg="http://www.w3.org/2000/svg"><sodipodi:namedview
     id="namedview1"
     pagecolor="#ffffff"
     bordercolor="#111111"
     borderopacity="1"
     inkscape:showpageshadow="0"
     inkscape:pageopacity="0"
     inkscape:pagecheckerboard="1"
     inkscape:deskcolor="#d1d1d1"
     inkscape:document-units="px"
     inkscape:zoom="1.2595537"
     inkscape:cx="271.92172"
     inkscape:cy="211.18592"
     inkscape:window-width="1512"
     inkscape:window-height="917"
     inkscape:window-x="0"
     inkscape:window-y="65"
     inkscape:window-maximized="0"
     inkscape:current-layer="layer1" /><defs
     id="defs1" /><g
     inkscape:label="Слой 1"
     inkscape:groupmode="layer"
     id="layer1"><rect
       style="fill:#000000;fill-opacity:0;stroke:#000000;stroke-width:0.48586;stroke-dasharray:none"
       id="rect1"
       width="86.826645"
       height="86.826637"
       x="0.39855257"
       y="0.39855254" /><path
       style="fill:#000000;fill-opacity:0;stroke:#000000;stroke-width:0.480403;stroke-dasharray:none"
       d="M 0,13.469368 H 87.3125"
       id="path1" /><path
       style="fill:#000000;fill-opacity:0;stroke:#000000;stroke-width:0.537908;stroke-dasharray:none"
       d="M 24.077348,0 V 87.3125"
       id="path2" /><path
       style="fill:#000000;fill-opacity:0;stroke:#000000;stroke-width:0.537908;stroke-dasharray:none"
       d="M 45.244014,0 V 87.3125"
       id="path2-4" /><path
       style="fill:#000000;fill-opacity:0;stroke:#000000;stroke-width:0.537908;stroke-dasharray:none"
       d="M 66.410681,0 V 87.3125"
       id="path2-1" /><path
       style="fill:#000000;fill-opacity:0;stroke:#000000;stroke-width:0.480403;stroke-dasharray:none"
       d="M 0,31.990202 H 87.312503"
       id="path1-1" /><path
       style="fill:#000000;fill-opacity:0;stroke:#000000;stroke-width:0.480403;stroke-dasharray:none"
       d="M 0,50.511035 H 87.312503"
       id="path1-1-5" /><path
       style="fill:#000000;fill-opacity:0;stroke:#000000;stroke-width:0.480403;stroke-dasharray:none"
       d="M 0,69.031868 H 87.312507"
       id="path1-1-5-8" /><g
       id="page1"
       transform="matrix(0.39863888,0,0,0.39863888,-18.766798,-2.650581)"><path
         id="use1"
         d="m 64.072465,59.59793 c 0,-0.446167 -0.02479,-0.470954 -0.17351,-0.470954 -0.09915,0 -0.123935,0.02479 -0.42138,0.396593 -0.07436,0.09915 -0.297444,0.347019 -0.371806,0.446167 -0.793185,-0.84276 -1.908603,-0.867547 -2.329983,-0.867547 -2.751363,0 -3.742845,1.437649 -3.742845,2.875299 0,2.230834 2.52828,2.751363 3.247104,2.900085 1.561585,0.322232 2.1069,0.42138 2.627428,0.867547 0.322232,0.297444 0.867547,0.84276 0.867547,1.735093 0,1.041057 -0.594889,2.379558 -2.875298,2.379558 -2.156474,0 -2.924873,-1.635946 -3.37104,-3.817207 -0.07436,-0.347018 -0.07436,-0.371805 -0.272657,-0.371805 -0.198296,0 -0.223084,0.02479 -0.223084,0.520528 v 3.569335 c 0,0.446167 0.02479,0.470954 0.17351,0.470954 0.123935,0 0.148722,-0.02479 0.272657,-0.223083 0.148723,-0.223084 0.520528,-0.817973 0.669251,-1.065843 0.495741,0.66925 1.363288,1.313713 2.751363,1.313713 2.453918,0 3.767632,-1.3385 3.767632,-3.271891 0,-1.264139 -0.669251,-1.93339 -0.991482,-2.230834 -0.743612,-0.768399 -1.611159,-0.941908 -2.652215,-1.140205 -1.363288,-0.297445 -3.098382,-0.644463 -3.098382,-2.156474 0,-0.644463 0.347019,-2.007751 2.850511,-2.007751 2.652215,0 2.800937,2.478705 2.850512,3.271891 0.02479,0.123935 0.148722,0.148723 0.223083,0.148723 0.223084,0 0.223084,-0.07436 0.223084,-0.495742 z" /><path
         id="use2"
         d="m 69.162634,54.789242 c 0,-0.545315 -0.446167,-1.016269 -1.016269,-1.016269 -0.545315,0 -1.016269,0.446167 -1.016269,1.016269 0,0.545315 0.446167,1.016269 1.016269,1.016269 0.545315,0 1.016269,-0.446167 1.016269,-1.016269 z m -2.900085,4.684753 v 0.644464 c 1.388075,0 1.586371,0.148722 1.586371,1.3385 v 6.890801 c 0,0.941908 -0.09915,1.065844 -1.685519,1.065844 v 0.644463 c 0.594889,-0.04957 1.660732,-0.04957 2.280409,-0.04957 0.594889,0 1.611158,0 2.18126,0.04957 v -0.644463 c -1.462436,0 -1.51201,-0.148723 -1.51201,-1.041057 v -9.171209 z" /><path
         id="use3"
         d="m 81.795195,62.522803 c 0,-1.26414 -0.24787,-3.321465 -3.172743,-3.321465 -1.958177,0 -2.974446,1.51201 -3.346252,2.503492 h -0.02479 v -2.503492 l -2.924872,0.272657 v 0.644464 c 1.462436,0 1.685519,0.148722 1.685519,1.3385 v 6.890801 c 0,0.941908 -0.09915,1.065844 -1.685519,1.065844 v 0.644463 c 0.594889,-0.04957 1.685519,-0.04957 2.329983,-0.04957 0.644464,0 1.759881,0 2.35477,0.04957 v -0.644463 c -1.586372,0 -1.68552,-0.09915 -1.68552,-1.065844 v -4.759114 c 0,-2.280409 1.388075,-3.990716 3.123169,-3.990716 1.834242,0 2.032538,1.635946 2.032538,2.825725 v 5.924105 c 0,0.941908 -0.09915,1.065844 -1.685519,1.065844 v 0.644463 c 0.594889,-0.04957 1.685519,-0.04957 2.329983,-0.04957 0.644464,0 1.759881,0 2.35477,0.04957 v -0.644463 c -1.586372,0 -1.68552,-0.09915 -1.68552,-1.065844 z" /><path
         id="use4"
         d="m 100.05154,59.944949 c -0.793187,0.148723 -1.090632,0.743612 -1.090632,1.214566 0,0.594889 0.470954,0.793186 0.817973,0.793186 0.743609,0 1.264139,-0.644464 1.264139,-1.313714 0,-1.041057 -1.189778,-1.512011 -2.230834,-1.512011 -1.512011,0 -2.35477,1.487224 -2.577854,1.958178 -0.570102,-1.859029 -2.106899,-1.958178 -2.553066,-1.958178 -2.52828,0 -3.866781,3.247104 -3.866781,3.79242 0,0.09915 0.09915,0.223083 0.272658,0.223083 0.198296,0 0.24787,-0.148722 0.297444,-0.24787 0.84276,-2.751363 2.503493,-3.271891 3.222317,-3.271891 1.115418,0 1.338501,1.041056 1.338501,1.635945 0,0.545315 -0.148722,1.115417 -0.446167,2.305196 l -0.842759,3.395826 c -0.371806,1.487224 -1.090631,2.850511 -2.404345,2.850511 -0.123935,0 -0.743611,0 -1.264139,-0.322231 0.892334,-0.17351 1.09063,-0.917121 1.09063,-1.214566 0,-0.495741 -0.371806,-0.793186 -0.84276,-0.793186 -0.594889,0 -1.239353,0.520529 -1.239353,1.313714 0,1.041057 1.164992,1.512011 2.230835,1.512011 1.189779,0 2.032539,-0.941908 2.553067,-1.958178 0.396593,1.462436 1.635945,1.958178 2.553066,1.958178 2.52828,0 3.86678,-3.247104 3.86678,-3.79242 0,-0.123935 -0.0991,-0.223083 -0.24787,-0.223083 -0.223083,0 -0.24787,0.123935 -0.322232,0.322232 -0.66925,2.18126 -2.106899,3.197529 -3.222317,3.197529 -0.867546,0 -1.3385,-0.644463 -1.3385,-1.660732 0,-0.545315 0.09915,-0.941908 0.495741,-2.577854 l 0.867547,-3.371039 c 0.371805,-1.487223 1.214565,-2.577853 2.35477,-2.577853 0.04957,0 0.743611,0 1.264141,0.322231 z" /></g><g
       id="page1-0"
       transform="matrix(0.39863888,0,0,0.39863888,-20.106214,17.702236)"><path
         id="use1-6"
         d="m 65.063947,57.077957 c -0.470954,0 -1.164992,0 -1.164992,0.867547 0,0.694038 0.570102,0.892334 0.892334,0.892334 0.173509,0 0.892334,-0.07436 0.892334,-0.941908 0,-1.759881 -1.68552,-3.098382 -3.594123,-3.098382 -2.627427,0 -4.858262,2.429132 -4.858262,5.601874 0,3.296679 2.329983,5.5523 4.858262,5.5523 3.073595,0 3.841994,-2.850511 3.841994,-3.123168 0,-0.09915 -0.02479,-0.17351 -0.198297,-0.17351 -0.173509,0 -0.198296,0.02479 -0.297445,0.347019 -0.644463,2.007751 -2.057325,2.503492 -3.123168,2.503492 -1.586372,0 -3.494975,-1.462436 -3.494975,-5.13092 0,-3.767632 1.834242,-5.13092 3.296678,-5.13092 0.966695,0 2.404344,0.470954 2.94966,1.834242 z" /><path
         id="use2-5"
         d="m 77.169327,60.448997 c 0,-3.172743 -2.305196,-5.651449 -5.006985,-5.651449 -2.701789,0 -5.006985,2.478706 -5.006985,5.651449 0,3.123168 2.305196,5.502725 5.006985,5.502725 2.701789,0 5.006985,-2.379557 5.006985,-5.502725 z m -5.006985,5.056558 c -1.164991,0 -2.156473,-0.694037 -2.726576,-1.660732 -0.619676,-1.115418 -0.694037,-2.503493 -0.694037,-3.594123 0,-1.041056 0.04957,-2.329983 0.694037,-3.4454 0.495741,-0.817973 1.462437,-1.611159 2.726576,-1.611159 1.115418,0 2.057326,0.619677 2.652215,1.487223 0.768399,1.164992 0.768399,2.800937 0.768399,3.569336 0,0.966695 -0.04957,2.453918 -0.718825,3.643697 -0.694037,1.140204 -1.759881,1.611158 -2.701789,1.611158 z" /><path
         id="use3-3"
         d="m 85.513097,55.293289 c 0,-0.446167 -0.02479,-0.470954 -0.17351,-0.470954 -0.09915,0 -0.123935,0.02479 -0.42138,0.396593 -0.07436,0.09915 -0.297444,0.347019 -0.371806,0.446167 -0.793185,-0.84276 -1.908603,-0.867547 -2.329983,-0.867547 -2.751363,0 -3.742845,1.437649 -3.742845,2.875299 0,2.230834 2.52828,2.751363 3.247104,2.900085 1.561585,0.322232 2.1069,0.42138 2.627428,0.867547 0.322232,0.297444 0.867547,0.84276 0.867547,1.735093 0,1.041057 -0.594889,2.379558 -2.875298,2.379558 -2.156474,0 -2.924873,-1.635946 -3.37104,-3.817207 -0.07436,-0.347018 -0.07436,-0.371805 -0.272657,-0.371805 -0.198296,0 -0.223084,0.02479 -0.223084,0.520528 v 3.569335 c 0,0.446167 0.02479,0.470954 0.17351,0.470954 0.123935,0 0.148722,-0.02479 0.272657,-0.223083 0.148723,-0.223084 0.520528,-0.817973 0.669251,-1.065843 0.495741,0.66925 1.363288,1.313713 2.751363,1.313713 2.453918,0 3.767632,-1.3385 3.767632,-3.271891 0,-1.264139 -0.669251,-1.93339 -0.991482,-2.230834 -0.743612,-0.768399 -1.611159,-0.941908 -2.652215,-1.140205 -1.363288,-0.297445 -3.098382,-0.644463 -3.098382,-2.156474 0,-0.644463 0.347019,-2.007751 2.850511,-2.007751 2.652215,0 2.800937,2.478705 2.850512,3.271891 0.02479,0.123935 0.148722,0.148723 0.223083,0.148723 0.223084,0 0.223084,-0.07436 0.223084,-0.495742 z" /><path
         id="use4-8"
         d="m 102.64147,55.640308 c -0.79319,0.148723 -1.09063,0.743612 -1.09063,1.214566 0,0.594889 0.47095,0.793186 0.81797,0.793186 0.74361,0 1.26414,-0.644464 1.26414,-1.313714 0,-1.041057 -1.18978,-1.512011 -2.23084,-1.512011 -1.512007,0 -2.354766,1.487224 -2.57785,1.958178 -0.570102,-1.859029 -2.106899,-1.958178 -2.553066,-1.958178 -2.52828,0 -3.866781,3.247104 -3.866781,3.79242 0,0.09915 0.09915,0.223083 0.272658,0.223083 0.198296,0 0.24787,-0.148722 0.297444,-0.24787 0.84276,-2.751363 2.503493,-3.271891 3.222317,-3.271891 1.115418,0 1.338501,1.041056 1.338501,1.635945 0,0.545315 -0.148722,1.115417 -0.446167,2.305196 l -0.842759,3.395826 c -0.371806,1.487224 -1.090631,2.850511 -2.404345,2.850511 -0.123935,0 -0.743611,0 -1.264139,-0.322231 0.892334,-0.17351 1.09063,-0.917121 1.09063,-1.214566 0,-0.495741 -0.371806,-0.793186 -0.84276,-0.793186 -0.594889,0 -1.239353,0.520529 -1.239353,1.313714 0,1.041057 1.164992,1.512011 2.230835,1.512011 1.189779,0 2.032539,-0.941908 2.553067,-1.958178 0.396593,1.462436 1.635945,1.958178 2.553066,1.958178 2.528282,0 3.866782,-3.247104 3.866782,-3.79242 0,-0.123935 -0.0991,-0.223083 -0.24787,-0.223083 -0.22309,0 -0.24787,0.123935 -0.32223,0.322232 -0.66925,2.18126 -2.1069,3.197529 -3.222321,3.197529 -0.867546,0 -1.3385,-0.644463 -1.3385,-1.660732 0,-0.545315 0.09915,-0.941908 0.495741,-2.577854 l 0.867547,-3.371039 c 0.371805,-1.487223 1.214563,-2.577853 2.354773,-2.577853 0.0496,0 0.74361,0 1.26414,0.322231 z" /></g><g
       id="page1-8"
       transform="matrix(0.39863888,0,0,0.39863888,-20.47756,35.346469)"><path
         id="use1-3"
         d="m 60.15611,59.028022 h 3.470188 V 58.383559 H 60.15611 v -4.585605 h -0.446167 c -0.04957,2.553067 -0.917121,4.783901 -3.02402,4.833476 v 0.396592 h 2.156473 v 6.965162 c 0,0.470954 0,3.247104 2.875298,3.247104 1.462437,0 2.305196,-1.437649 2.305196,-3.271891 v -1.412862 h -0.446167 v 1.388075 c 0,1.710307 -0.66925,2.850511 -1.710306,2.850511 -0.718825,0 -1.710307,-0.495741 -1.710307,-2.751362 z" /><path
         id="use2-0"
         d="m 74.114463,62.622145 c 0,-1.635945 0,-2.503492 -1.041056,-3.470187 -0.917121,-0.817973 -1.982964,-1.065844 -2.825724,-1.065844 -1.958177,0 -3.371039,1.536798 -3.371039,3.172743 0,0.917121 0.743611,0.966695 0.892334,0.966695 0.322231,0 0.892333,-0.198296 0.892333,-0.892334 0,-0.619676 -0.470954,-0.892334 -0.892333,-0.892334 -0.09915,0 -0.223084,0.02479 -0.297445,0.04958 0.520528,-1.561585 1.859029,-2.007752 2.726576,-2.007752 1.239352,0 2.60264,1.090631 2.60264,3.172743 v 1.09063 c -1.462436,0.04957 -3.222317,0.247871 -4.610392,0.991483 -1.561584,0.867546 -2.007751,2.106899 -2.007751,3.048807 0,1.908603 2.230835,2.453918 3.544549,2.453918 1.363288,0 2.627427,-0.768398 3.172743,-2.18126 0.04957,1.09063 0.743611,2.082112 1.834242,2.082112 0.520528,0 1.834242,-0.347019 1.834242,-2.305196 v -1.388075 h -0.446167 v 1.412862 c 0,1.512011 -0.669251,1.710307 -0.991483,1.710307 -1.016269,0 -1.016269,-1.288927 -1.016269,-2.379557 z m -1.313714,2.974447 c 0,2.156473 -1.536797,3.247104 -2.900085,3.247104 -1.239353,0 -2.206048,-0.917121 -2.206048,-2.057326 0,-0.743611 0.322232,-2.057325 1.759881,-2.850511 1.189779,-0.66925 2.553067,-0.768399 3.346252,-0.817973 z" /><path
         id="use3-9"
         d="m 86.845549,61.506728 c 0,-1.26414 -0.24787,-3.321465 -3.172743,-3.321465 -1.958177,0 -2.974446,1.51201 -3.346252,2.503492 h -0.02479 v -2.503492 l -2.924872,0.272657 v 0.644464 c 1.462436,0 1.685519,0.148722 1.685519,1.3385 v 6.890801 c 0,0.941908 -0.09915,1.065844 -1.685519,1.065844 v 0.644463 c 0.594889,-0.04957 1.685519,-0.04957 2.329983,-0.04957 0.644464,0 1.759881,0 2.35477,0.04957 v -0.644463 c -1.586372,0 -1.68552,-0.09915 -1.68552,-1.065844 v -4.759114 c 0,-2.280409 1.388075,-3.990716 3.123169,-3.990716 1.834242,0 2.032538,1.635946 2.032538,2.825725 v 5.924105 c 0,0.941908 -0.09915,1.065844 -1.685519,1.065844 v 0.644463 c 0.594889,-0.04957 1.685519,-0.04957 2.329983,-0.04957 0.644464,0 1.759881,0 2.35477,0.04957 v -0.644463 c -1.586372,0 -1.68552,-0.09915 -1.68552,-1.065844 z" /><path
         id="use4-0"
         d="m 105.10188,58.928874 c -0.79318,0.148723 -1.09063,0.743612 -1.09063,1.214566 0,0.594889 0.47096,0.793186 0.81798,0.793186 0.74361,0 1.26414,-0.644464 1.26414,-1.313714 0,-1.041057 -1.18978,-1.512011 -2.23084,-1.512011 -1.51201,0 -2.35477,1.487224 -2.57785,1.958178 -0.5701,-1.859029 -2.106901,-1.958178 -2.553068,-1.958178 -2.52828,0 -3.866781,3.247104 -3.866781,3.79242 0,0.09915 0.09915,0.223083 0.272658,0.223083 0.198296,0 0.24787,-0.148722 0.297444,-0.24787 0.84276,-2.751363 2.503493,-3.271891 3.222317,-3.271891 1.115418,0 1.338501,1.041056 1.338501,1.635945 0,0.545315 -0.148722,1.115417 -0.446167,2.305196 l -0.842759,3.395826 c -0.371806,1.487224 -1.090631,2.850511 -2.404345,2.850511 -0.123935,0 -0.743611,0 -1.264139,-0.322231 0.892334,-0.17351 1.09063,-0.917121 1.09063,-1.214566 0,-0.495741 -0.371806,-0.793186 -0.84276,-0.793186 -0.594889,0 -1.239353,0.520529 -1.239353,1.313714 0,1.041057 1.164992,1.512011 2.230835,1.512011 1.189779,0 2.032539,-0.941908 2.553067,-1.958178 0.396593,1.462436 1.63595,1.958178 2.55307,1.958178 2.52828,0 3.86678,-3.247104 3.86678,-3.79242 0,-0.123935 -0.0991,-0.223083 -0.24787,-0.223083 -0.22309,0 -0.24787,0.123935 -0.32224,0.322232 -0.66925,2.18126 -2.10689,3.197529 -3.22231,3.197529 -0.86755,0 -1.3385,-0.644463 -1.3385,-1.660732 0,-0.545315 0.0991,-0.941908 0.49574,-2.577854 l 0.86755,-3.371039 c 0.3718,-1.487223 1.21456,-2.577853 2.35477,-2.577853 0.0496,0 0.74361,0 1.26413,0.322231 z" /></g><g
       id="page1-3"
       transform="matrix(0.39863888,0,0,0.39863888,-20.137712,53.564253)"><path
         id="use1-8"
         d="m 65.063947,60.366523 c -0.470954,0 -1.164992,0 -1.164992,0.867547 0,0.694038 0.570102,0.892334 0.892334,0.892334 0.173509,0 0.892334,-0.07436 0.892334,-0.941908 0,-1.759881 -1.68552,-3.098382 -3.594123,-3.098382 -2.627427,0 -4.858262,2.429132 -4.858262,5.601874 0,3.296679 2.329983,5.5523 4.858262,5.5523 3.073595,0 3.841994,-2.850511 3.841994,-3.123168 0,-0.09915 -0.02479,-0.17351 -0.198297,-0.17351 -0.173509,0 -0.198296,0.02479 -0.297445,0.347019 -0.644463,2.007751 -2.057325,2.503492 -3.123168,2.503492 -1.586372,0 -3.494975,-1.462436 -3.494975,-5.13092 0,-3.767632 1.834242,-5.13092 3.296678,-5.13092 0.966695,0 2.404344,0.470954 2.94966,1.834242 z" /><path
         id="use2-6"
         d="m 77.169327,63.737563 c 0,-3.172743 -2.305196,-5.651449 -5.006985,-5.651449 -2.701789,0 -5.006985,2.478706 -5.006985,5.651449 0,3.123168 2.305196,5.502725 5.006985,5.502725 2.701789,0 5.006985,-2.379557 5.006985,-5.502725 z m -5.006985,5.056558 c -1.164991,0 -2.156473,-0.694037 -2.726576,-1.660732 -0.619676,-1.115418 -0.694037,-2.503493 -0.694037,-3.594123 0,-1.041056 0.04957,-2.329983 0.694037,-3.4454 0.495741,-0.817973 1.462437,-1.611159 2.726576,-1.611159 1.115418,0 2.057326,0.619677 2.652215,1.487223 0.768399,1.164992 0.768399,2.800937 0.768399,3.569336 0,0.966695 -0.04957,2.453918 -0.718825,3.643697 -0.694037,1.140204 -1.759881,1.611158 -2.701789,1.611158 z" /><path
         id="use3-1"
         d="m 81.596742,59.028022 h 3.470188 v -0.644463 h -3.470188 v -4.585605 h -0.446167 c -0.04957,2.553067 -0.917121,4.783901 -3.02402,4.833476 v 0.396592 h 2.156473 v 6.965162 c 0,0.470954 0,3.247104 2.875298,3.247104 1.462437,0 2.305196,-1.437649 2.305196,-3.271891 v -1.412862 h -0.446167 v 1.388075 c 0,1.710307 -0.66925,2.850511 -1.710306,2.850511 -0.718825,0 -1.710307,-0.495741 -1.710307,-2.751362 z" /><path
         id="use4-9"
         d="m 102.51194,58.928874 c -0.79318,0.148723 -1.09063,0.743612 -1.09063,1.214566 0,0.594889 0.47096,0.793186 0.81797,0.793186 0.74362,0 1.26414,-0.644464 1.26414,-1.313714 0,-1.041057 -1.18977,-1.512011 -2.23083,-1.512011 -1.512012,0 -2.354771,1.487224 -2.577855,1.958178 -0.570102,-1.859029 -2.106899,-1.958178 -2.553066,-1.958178 -2.52828,0 -3.866781,3.247104 -3.866781,3.79242 0,0.09915 0.09915,0.223083 0.272658,0.223083 0.198296,0 0.24787,-0.148722 0.297444,-0.24787 0.84276,-2.751363 2.503493,-3.271891 3.222317,-3.271891 1.115418,0 1.338501,1.041056 1.338501,1.635945 0,0.545315 -0.148722,1.115417 -0.446167,2.305196 l -0.842759,3.395826 c -0.371806,1.487224 -1.090631,2.850511 -2.404345,2.850511 -0.123935,0 -0.743611,0 -1.264139,-0.322231 0.892334,-0.17351 1.09063,-0.917121 1.09063,-1.214566 0,-0.495741 -0.371806,-0.793186 -0.84276,-0.793186 -0.594889,0 -1.239353,0.520529 -1.239353,1.313714 0,1.041057 1.164992,1.512011 2.230835,1.512011 1.189779,0 2.032539,-0.941908 2.553067,-1.958178 0.396593,1.462436 1.635945,1.958178 2.553066,1.958178 2.528277,0 3.866777,-3.247104 3.866777,-3.79242 0,-0.123935 -0.0991,-0.223083 -0.24787,-0.223083 -0.22308,0 -0.24787,0.123935 -0.32223,0.322232 -0.66925,2.18126 -2.106898,3.197529 -3.222316,3.197529 -0.867546,0 -1.3385,-0.644463 -1.3385,-1.660732 0,-0.545315 0.09915,-0.941908 0.495741,-2.577854 l 0.867547,-3.371039 c 0.371805,-1.487223 1.214568,-2.577853 2.354768,-2.577853 0.0496,0 0.74361,0 1.26414,0.322231 z" /></g><g
       id="page1-9"
       transform="matrix(0.39863888,0,0,0.39863888,-13.09568,-16.881431)"><path
         id="use1-7"
         d="m 68.162328,55.640308 c -0.793185,0.148723 -1.09063,0.743612 -1.09063,1.214566 0,0.594889 0.470954,0.793186 0.817973,0.793186 0.743611,0 1.264139,-0.644464 1.264139,-1.313714 0,-1.041057 -1.189778,-1.512011 -2.230834,-1.512011 -1.512011,0 -2.35477,1.487224 -2.577854,1.958178 -0.570102,-1.859029 -2.106899,-1.958178 -2.553066,-1.958178 -2.52828,0 -3.866781,3.247104 -3.866781,3.79242 0,0.09915 0.09915,0.223083 0.272658,0.223083 0.198296,0 0.24787,-0.148722 0.297444,-0.24787 0.84276,-2.751363 2.503493,-3.271891 3.222317,-3.271891 1.115418,0 1.338501,1.041056 1.338501,1.635945 0,0.545315 -0.148722,1.115417 -0.446167,2.305196 l -0.842759,3.395826 c -0.371806,1.487224 -1.090631,2.850511 -2.404345,2.850511 -0.123935,0 -0.743611,0 -1.264139,-0.322231 0.892334,-0.17351 1.09063,-0.917121 1.09063,-1.214566 0,-0.495741 -0.371806,-0.793186 -0.84276,-0.793186 -0.594889,0 -1.239353,0.520529 -1.239353,1.313714 0,1.041057 1.164992,1.512011 2.230835,1.512011 1.189779,0 2.032539,-0.941908 2.553067,-1.958178 0.396593,1.462436 1.635945,1.958178 2.553066,1.958178 2.52828,0 3.866781,-3.247104 3.866781,-3.79242 0,-0.123935 -0.09915,-0.223083 -0.247871,-0.223083 -0.223083,0 -0.24787,0.123935 -0.322232,0.322232 -0.66925,2.18126 -2.106899,3.197529 -3.222317,3.197529 -0.867546,0 -1.3385,-0.644463 -1.3385,-1.660732 0,-0.545315 0.09915,-0.941908 0.495741,-2.577854 l 0.867547,-3.371039 c 0.371805,-1.487223 1.214565,-2.577853 2.35477,-2.577853 0.04957,0 0.743611,0 1.264139,0.322231 z" /></g><g
       id="page1-4"
       transform="matrix(0.26225423,0,0,0.26225423,17.259644,-12.966493)"><path
         id="use1-9"
         d="m 64.028627,55.125748 h 2.800937 c -0.669251,2.77615 -1.09063,4.585605 -1.09063,6.568569 0,0.347019 0,3.024021 1.016269,3.024021 0.520528,0 0.966695,-0.470954 0.966695,-0.892334 0,-0.123936 0,-0.17351 -0.17351,-0.545316 -0.66925,-1.710306 -0.66925,-3.841993 -0.66925,-4.015502 0,-0.148723 0,-1.908603 0.520528,-4.139438 h 2.77615 c 0.322232,0 1.140205,0 1.140205,-0.793186 0,-0.545315 -0.470954,-0.545315 -0.917121,-0.545315 h -8.154941 c -0.570102,0 -1.412862,0 -2.553067,1.214566 -0.644463,0.718824 -1.437649,2.032538 -1.437649,2.18126 0,0.148722 0.123936,0.198297 0.272658,0.198297 0.173509,0 0.198296,-0.07436 0.322232,-0.223084 1.288926,-2.032538 2.577853,-2.032538 3.19753,-2.032538 h 1.412862 c -0.545316,1.859029 -1.164992,4.015503 -3.19753,8.353237 -0.198297,0.396593 -0.198297,0.446167 -0.198297,0.594889 0,0.520528 0.446167,0.644464 0.669251,0.644464 0.718824,0 0.917121,-0.644464 1.214565,-1.68552 0.396593,-1.26414 0.396593,-1.313714 0.644464,-2.305196 z" /><rect
         x="57.60878"
         y="74.546608"
         height="0.991445"
         width="14.65695"
         id="rect1-4" /><path
         id="use2-4"
         d="m 61.8808,89.690258 c 0,-5.924106 2.77615,-7.262607 4.387308,-7.262607 0.520528,0 1.784668,0.09915 2.280409,1.065843 -0.396593,0 -1.140204,0 -1.140204,0.867547 0,0.669251 0.545315,0.892334 0.892334,0.892334 0.223083,0 0.892333,-0.09915 0.892333,-0.941908 0,-1.561584 -1.239352,-2.453918 -2.949659,-2.453918 -2.949659,0 -6.048041,3.073594 -6.048041,8.551533 0,6.742079 2.800937,8.229302 4.783901,8.229302 2.404345,0 4.684753,-2.156474 4.684753,-5.477939 0,-3.098382 -2.007751,-5.354003 -4.53603,-5.354003 -1.512011,0 -2.627428,0.991482 -3.247104,2.726575 z m 3.098381,8.353237 c -3.048807,0 -3.048807,-4.560818 -3.048807,-5.477939 0,-1.784668 0.84276,-4.362522 3.147956,-4.362522 0.421379,0 1.635945,0 2.453918,1.710307 0.446167,0.966695 0.446167,1.982964 0.446167,3.222317 0,1.338501 0,2.329983 -0.520528,3.321465 -0.545315,1.016269 -1.338501,1.586372 -2.478706,1.586372 z" /></g><g
       id="page1-5"
       transform="matrix(0.43102659,0,0,0.43102659,29.510327,-21.913743)"><path
         id="use1-61"
         d="m 61.324445,54.566574 h 1.62112 c -0.387347,1.606774 -0.631233,2.654046 -0.631233,3.801742 0,0.200847 0,1.750236 0.588194,1.750236 0.30127,0 0.559502,-0.272578 0.559502,-0.516463 0,-0.07173 0,-0.100423 -0.100424,-0.315616 -0.387347,-0.989888 -0.387347,-2.223661 -0.387347,-2.324084 0,-0.08608 0,-1.104657 0.30127,-2.395815 h 1.606774 c 0.186501,0 0.659925,0 0.659925,-0.459078 0,-0.315616 -0.272578,-0.315616 -0.530809,-0.315616 h -4.719898 c -0.329963,0 -0.817734,0 -1.477659,0.702963 -0.373001,0.41604 -0.832079,1.176388 -0.832079,1.262465 0,0.08608 0.07173,0.11477 0.157808,0.11477 0.100424,0 0.11477,-0.04304 0.186501,-0.129116 0.746002,-1.176388 1.492004,-1.176388 1.850659,-1.176388 h 0.817733 c -0.315616,1.075965 -0.674271,2.324084 -1.850659,4.834668 -0.11477,0.229539 -0.11477,0.258232 -0.11477,0.344309 0,0.30127 0.258232,0.373001 0.387348,0.373001 0.416039,0 0.530809,-0.373001 0.702963,-0.975541 0.229539,-0.731656 0.229539,-0.760349 0.373001,-1.334197 z" /><rect
         x="57.60878"
         y="65.806938"
         height="0.57382202"
         width="8.4831114"
         id="rect1-5" /><path
         id="use2-9"
         d="m 63.517535,70.181791 c 0,-0.272578 0,-0.344309 -0.200847,-0.344309 -0.11477,0 -0.157808,0 -0.272578,0.172154 l -4.318205,6.699674 v 0.416039 h 3.77305 v 1.305504 c 0,0.530809 -0.02869,0.674271 -1.075965,0.674271 h -0.286924 v 0.41604 c 0.329963,-0.02869 1.463312,-0.02869 1.865006,-0.02869 0.401694,0 1.549389,0 1.879351,0.02869 v -0.41604 h -0.286924 c -1.032926,0 -1.075964,-0.143462 -1.075964,-0.674271 V 77.125349 H 64.9665 V 76.70931 h -1.448965 z m -0.946849,1.119003 V 76.70931 H 59.08456 Z" /></g><g
       id="page1-89"
       transform="matrix(0.31267532,0,0,0.31267532,56.89635,-15.772478)"><path
         id="use1-4"
         d="m 62.960373,54.90486 h 2.334865 c -0.557888,2.314202 -0.909151,3.822566 -0.909151,5.475568 0,0.289275 0,2.520827 0.847163,2.520827 0.433913,0 0.805839,-0.392588 0.805839,-0.743851 0,-0.103312 0,-0.144637 -0.144638,-0.454575 -0.557888,-1.425714 -0.557888,-3.202691 -0.557888,-3.347328 0,-0.123976 0,-1.591015 0.433913,-3.450641 h 2.314202 c 0.268613,0 0.950476,0 0.950476,-0.661201 0,-0.454576 -0.392588,-0.454576 -0.764513,-0.454576 h -6.79797 c -0.475238,0 -1.177763,0 -2.128239,1.012464 -0.537226,0.599213 -1.198426,1.694327 -1.198426,1.818302 0,0.123975 0.103312,0.1653 0.227287,0.1653 0.144638,0 0.1653,-0.06199 0.268613,-0.185963 1.074451,-1.694326 2.148902,-1.694326 2.665465,-1.694326 h 1.177764 c -0.454575,1.549689 -0.971139,3.347328 -2.665465,6.963269 -0.1653,0.3306 -0.1653,0.371926 -0.1653,0.495901 0,0.433913 0.371925,0.537225 0.557888,0.537225 0.599213,0 0.764513,-0.537225 1.012463,-1.405051 0.330601,-1.053789 0.330601,-1.095114 0.537226,-1.921615 z" /><rect
         x="57.60878"
         y="71.094116"
         height="0.82647502"
         width="12.218037"
         id="rect1-3" /><path
         id="use2-95"
         d="m 63.546127,83.821186 c 1.838965,0 2.644803,1.591014 2.644803,3.429978 0,2.479503 -1.322402,3.429979 -2.520828,3.429979 -1.095113,0 -2.87209,-0.537226 -3.429978,-2.12824 0.103312,0.04133 0.206625,0.04133 0.309938,0.04133 0.4959,0 0.867825,-0.3306 0.867825,-0.867826 0,-0.599213 -0.454575,-0.867826 -0.867825,-0.867826 -0.351263,0 -0.888489,0.165301 -0.888489,0.929814 0,1.900952 1.859627,3.388653 4.049854,3.388653 2.29354,0 4.049854,-1.797639 4.049854,-3.905216 0,-2.004265 -1.653001,-3.450641 -3.615941,-3.677929 1.570352,-0.3306 3.078716,-1.735652 3.078716,-3.615941 0,-1.611677 -1.632339,-2.78944 -3.491966,-2.78944 -1.88029,0 -3.533291,1.157101 -3.533291,2.810102 0,0.723189 0.537225,0.847164 0.805838,0.847164 0.433913,0 0.805838,-0.268613 0.805838,-0.805839 0,-0.537226 -0.371925,-0.805838 -0.805838,-0.805838 -0.08265,0 -0.185963,0 -0.268613,0.04133 0.599213,-1.363726 2.231553,-1.611676 2.954741,-1.611676 0.723188,0 2.086914,0.351262 2.086914,2.334864 0,0.578551 -0.08265,1.611677 -0.785175,2.520828 -0.619876,0.805838 -1.322402,0.847163 -2.004265,0.909151 -0.103313,0 -0.578551,0.04133 -0.661201,0.04133 -0.144637,0.02066 -0.227287,0.04133 -0.227287,0.185963 0,0.144638 0.02066,0.1653 0.433913,0.1653 z" /></g><g
       id="page1-51"
       transform="matrix(0.3062457,0,0,0.3062457,15.098977,-1.4570864)"><path
         id="use1-46"
         d="m 64.202136,53.937349 c 0,-0.520528 -0.02479,-0.545315 -0.371806,-0.545315 -0.966695,1.164991 -2.429131,1.536797 -3.817206,1.586371 -0.07436,0 -0.198296,0 -0.223083,0.04957 -0.02479,0.04957 -0.02479,0.09915 -0.02479,0.619677 0.768398,0 2.057325,-0.148723 3.048807,-0.743612 v 13.062777 c 0,0.867547 -0.04957,1.164992 -2.18126,1.164992 h -0.743612 v 0.644467 c 1.189778,-0.02479 2.429131,-0.04957 3.61891,-0.04957 1.189779,0 2.429131,0.02479 3.61891,0.04957 v -0.644463 h -0.743612 c -2.131687,0 -2.181261,-0.272658 -2.181261,-1.164992 z" /><rect
         x="57.60878"
         y="79.852409"
         height="0.991445"
         width="11.367786"
         id="rect1-0" /><path
         id="use2-3"
         d="m 67.944981,99.705599 h -0.446167 c -0.24787,1.759881 -0.446167,2.057321 -0.545315,2.206051 -0.123935,0.19829 -1.908603,0.19829 -2.255622,0.19829 h -4.759114 c 0.892334,-0.96669 2.627428,-2.726573 4.734327,-4.759111 1.51201,-1.437649 3.271891,-3.123169 3.271891,-5.577087 0,-2.924873 -2.329983,-4.610392 -4.932623,-4.610392 -2.726576,0 -4.387309,2.404344 -4.387309,4.635179 0,0.966695 0.718825,1.09063 1.016269,1.09063 0.247871,0 0.991483,-0.148722 0.991483,-1.016269 0,-0.768399 -0.644464,-0.991482 -0.991483,-0.991482 -0.148722,0 -0.297444,0.02479 -0.396592,0.07436 0.470954,-2.1069 1.908603,-3.147956 3.420613,-3.147956 2.156474,0 3.569336,1.710307 3.569336,3.965929 0,2.156473 -1.26414,4.015502 -2.677002,5.626661 l -4.932624,5.577088 v 0.5701 h 8.725043 z" /></g><g
       id="page1-47"
       transform="matrix(0.28712654,0,0,0.28712654,55.655432,-1.7551608)"><path
         id="use1-70"
         d="m 67.250944,76.974078 -4.362522,-9.642164 c -0.173509,-0.396593 -0.297444,-0.396593 -0.371805,-0.396593 -0.02479,0 -0.148723,0 -0.42138,0.198296 l -2.35477,1.784668 c -0.322232,0.247871 -0.322232,0.322232 -0.322232,0.396593 0,0.123935 0.07436,0.272658 0.24787,0.272658 0.148723,0 0.570103,-0.347019 0.84276,-0.545315 0.148723,-0.123936 0.520528,-0.396593 0.793186,-0.59489 L 66.1851,79.180125 c 0.17351,0.396593 0.297445,0.396593 0.520529,0.396593 0.371805,0 0.446167,-0.148722 0.619676,-0.495741 l 11.253322,-23.29983 c 0.17351,-0.347019 0.17351,-0.446167 0.17351,-0.495741 0,-0.247871 -0.198297,-0.495741 -0.495741,-0.495741 -0.198297,0 -0.371806,0.123935 -0.570103,0.520528 z" /><rect
         x="78.264717"
         y="54.789703"
         height="0.991445"
         width="11.367786"
         id="rect1-9" /><path
         id="use2-57"
         d="m 83.742656,67.860007 c 2.206048,0 3.172743,1.908603 3.172743,4.114651 0,2.974446 -1.586372,4.114651 -3.024021,4.114651 -1.313714,0 -3.4454,-0.644464 -4.114651,-2.553067 0.123936,0.04957 0.247871,0.04957 0.371806,0.04957 0.594889,0 1.041056,-0.396593 1.041056,-1.041056 0,-0.718825 -0.545315,-1.041056 -1.041056,-1.041056 -0.42138,0 -1.065843,0.198296 -1.065843,1.115417 0,2.280409 2.230835,4.065077 4.858262,4.065077 2.751363,0 4.858263,-2.156474 4.858263,-4.684753 0,-2.404344 -1.982965,-4.139438 -4.337735,-4.412096 1.883816,-0.396593 3.693271,-2.082112 3.693271,-4.337734 0,-1.93339 -1.958177,-3.346252 -4.189012,-3.346252 -2.255622,0 -4.238586,1.388075 -4.238586,3.371039 0,0.867547 0.644464,1.016269 0.966695,1.016269 0.520528,0 0.966695,-0.322232 0.966695,-0.966695 0,-0.644463 -0.446167,-0.966695 -0.966695,-0.966695 -0.09915,0 -0.223083,0 -0.322231,0.04957 0.718824,-1.635945 2.677001,-1.93339 3.544548,-1.93339 0.867547,0 2.503493,0.42138 2.503493,2.800937 0,0.694037 -0.09915,1.93339 -0.941908,3.02402 -0.743612,0.966696 -1.586372,1.01627 -2.404345,1.090631 -0.123935,0 -0.694037,0.04957 -0.793185,0.04957 -0.17351,0.02479 -0.272658,0.04957 -0.272658,0.223083 0,0.173509 0.02479,0.198297 0.520528,0.198297 z" /><rect
         x="57.60878"
         y="86.363747"
         height="0.991445"
         width="32.023724"
         id="rect2" /><path
         id="use3-2"
         d="m 78.272953,106.21694 h -0.446167 c -0.24787,1.75988 -0.446167,2.05732 -0.545315,2.20604 -0.123935,0.1983 -1.908603,0.1983 -2.255622,0.1983 h -4.759114 c 0.892334,-0.96669 2.627428,-2.72658 4.734327,-4.75911 1.51201,-1.43765 3.271891,-3.12317 3.271891,-5.577091 0,-2.924873 -2.329983,-4.610392 -4.932623,-4.610392 -2.726576,0 -4.387309,2.404344 -4.387309,4.635179 0,0.966695 0.718825,1.09063 1.016269,1.09063 0.247871,0 0.991483,-0.148722 0.991483,-1.016269 0,-0.768399 -0.644464,-0.991482 -0.991483,-0.991482 -0.148722,0 -0.297444,0.02479 -0.396592,0.07436 0.470954,-2.1069 1.908603,-3.147956 3.420613,-3.147956 2.156474,0 3.569336,1.710307 3.569336,3.965929 0,2.156472 -1.26414,4.015502 -2.677002,5.626662 l -4.932624,5.57709 v 0.5701 h 8.725043 z" /></g><g
       id="page1-7"
       transform="matrix(0.280567,0,0,0.280567,35.031571,-1.1516027)"><path
         id="use1-65"
         d="m 67.250944,76.974078 -4.362522,-9.642164 c -0.173509,-0.396593 -0.297444,-0.396593 -0.371805,-0.396593 -0.02479,0 -0.148723,0 -0.42138,0.198296 l -2.35477,1.784668 c -0.322232,0.247871 -0.322232,0.322232 -0.322232,0.396593 0,0.123935 0.07436,0.272658 0.24787,0.272658 0.148723,0 0.570103,-0.347019 0.84276,-0.545315 0.148723,-0.123936 0.520528,-0.396593 0.793186,-0.59489 L 66.1851,79.180125 c 0.17351,0.396593 0.297445,0.396593 0.520529,0.396593 0.371805,0 0.446167,-0.148722 0.619676,-0.495741 l 11.253322,-23.29983 c 0.17351,-0.347019 0.17351,-0.446167 0.17351,-0.495741 0,-0.247871 -0.198297,-0.495741 -0.495741,-0.495741 -0.198297,0 -0.371806,0.123935 -0.570103,0.520528 z" /><rect
         x="78.264717"
         y="54.789703"
         height="0.991445"
         width="11.367786"
         id="rect1-04" /><path
         id="use2-51"
         d="m 88.600918,72.445612 h -0.446167 c -0.24787,1.759881 -0.446167,2.057325 -0.545315,2.206047 -0.123935,0.198297 -1.908603,0.198297 -2.255622,0.198297 H 80.5947 c 0.892334,-0.966695 2.627428,-2.726576 4.734327,-4.759114 1.51201,-1.437649 3.271891,-3.123169 3.271891,-5.577087 0,-2.924873 -2.329983,-4.610392 -4.932623,-4.610392 -2.726576,0 -4.387309,2.404344 -4.387309,4.635179 0,0.966695 0.718825,1.09063 1.016269,1.09063 0.247871,0 0.991483,-0.148722 0.991483,-1.016269 0,-0.768399 -0.644464,-0.991482 -0.991483,-0.991482 -0.148722,0 -0.297444,0.02479 -0.396592,0.07436 0.470954,-2.1069 1.908603,-3.147956 3.420613,-3.147956 2.156474,0 3.569336,1.710307 3.569336,3.965929 0,2.156473 -1.26414,4.015502 -2.677002,5.626661 l -4.932624,5.577088 v 0.570102 h 8.725043 z" /><rect
         x="57.60878"
         y="86.363747"
         height="0.991445"
         width="32.023724"
         id="rect2-2" /><path
         id="use3-37"
         d="m 78.272953,106.21694 h -0.446167 c -0.24787,1.75988 -0.446167,2.05732 -0.545315,2.20604 -0.123935,0.1983 -1.908603,0.1983 -2.255622,0.1983 h -4.759114 c 0.892334,-0.96669 2.627428,-2.72658 4.734327,-4.75911 1.51201,-1.43765 3.271891,-3.12317 3.271891,-5.577091 0,-2.924873 -2.329983,-4.610392 -4.932623,-4.610392 -2.726576,0 -4.387309,2.404344 -4.387309,4.635179 0,0.966695 0.718825,1.09063 1.016269,1.09063 0.247871,0 0.991483,-0.148722 0.991483,-1.016269 0,-0.768399 -0.644464,-0.991482 -0.991483,-0.991482 -0.148722,0 -0.297444,0.02479 -0.396592,0.07436 0.470954,-2.1069 1.908603,-3.147956 3.420613,-3.147956 2.156474,0 3.569336,1.710307 3.569336,3.965929 0,2.156472 -1.26414,4.015502 -2.677002,5.626662 l -4.932624,5.57709 v 0.5701 h 8.725043 z" /></g><g
       id="page1-47-4"
       transform="matrix(0.28712654,0,0,0.28712654,12.377178,17.201866)"><path
         id="use1-70-3"
         d="m 67.250944,76.974078 -4.362522,-9.642164 c -0.173509,-0.396593 -0.297444,-0.396593 -0.371805,-0.396593 -0.02479,0 -0.148723,0 -0.42138,0.198296 l -2.35477,1.784668 c -0.322232,0.247871 -0.322232,0.322232 -0.322232,0.396593 0,0.123935 0.07436,0.272658 0.24787,0.272658 0.148723,0 0.570103,-0.347019 0.84276,-0.545315 0.148723,-0.123936 0.520528,-0.396593 0.793186,-0.59489 L 66.1851,79.180125 c 0.17351,0.396593 0.297445,0.396593 0.520529,0.396593 0.371805,0 0.446167,-0.148722 0.619676,-0.495741 l 11.253322,-23.29983 c 0.17351,-0.347019 0.17351,-0.446167 0.17351,-0.495741 0,-0.247871 -0.198297,-0.495741 -0.495741,-0.495741 -0.198297,0 -0.371806,0.123935 -0.570103,0.520528 z" /><rect
         x="78.264717"
         y="54.789703"
         height="0.991445"
         width="11.367786"
         id="rect1-9-1" /><path
         id="use2-57-7"
         d="m 83.742656,67.860007 c 2.206048,0 3.172743,1.908603 3.172743,4.114651 0,2.974446 -1.586372,4.114651 -3.024021,4.114651 -1.313714,0 -3.4454,-0.644464 -4.114651,-2.553067 0.123936,0.04957 0.247871,0.04957 0.371806,0.04957 0.594889,0 1.041056,-0.396593 1.041056,-1.041056 0,-0.718825 -0.545315,-1.041056 -1.041056,-1.041056 -0.42138,0 -1.065843,0.198296 -1.065843,1.115417 0,2.280409 2.230835,4.065077 4.858262,4.065077 2.751363,0 4.858263,-2.156474 4.858263,-4.684753 0,-2.404344 -1.982965,-4.139438 -4.337735,-4.412096 1.883816,-0.396593 3.693271,-2.082112 3.693271,-4.337734 0,-1.93339 -1.958177,-3.346252 -4.189012,-3.346252 -2.255622,0 -4.238586,1.388075 -4.238586,3.371039 0,0.867547 0.644464,1.016269 0.966695,1.016269 0.520528,0 0.966695,-0.322232 0.966695,-0.966695 0,-0.644463 -0.446167,-0.966695 -0.966695,-0.966695 -0.09915,0 -0.223083,0 -0.322231,0.04957 0.718824,-1.635945 2.677001,-1.93339 3.544548,-1.93339 0.867547,0 2.503493,0.42138 2.503493,2.800937 0,0.694037 -0.09915,1.93339 -0.941908,3.02402 -0.743612,0.966696 -1.586372,1.01627 -2.404345,1.090631 -0.123935,0 -0.694037,0.04957 -0.793185,0.04957 -0.17351,0.02479 -0.272658,0.04957 -0.272658,0.223083 0,0.173509 0.02479,0.198297 0.520528,0.198297 z" /><rect
         x="57.60878"
         y="86.363747"
         height="0.991445"
         width="32.023724"
         id="rect2-9" /><path
         id="use3-2-4"
         d="m 78.272953,106.21694 h -0.446167 c -0.24787,1.75988 -0.446167,2.05732 -0.545315,2.20604 -0.123935,0.1983 -1.908603,0.1983 -2.255622,0.1983 h -4.759114 c 0.892334,-0.96669 2.627428,-2.72658 4.734327,-4.75911 1.51201,-1.43765 3.271891,-3.12317 3.271891,-5.577091 0,-2.924873 -2.329983,-4.610392 -4.932623,-4.610392 -2.726576,0 -4.387309,2.404344 -4.387309,4.635179 0,0.966695 0.718825,1.09063 1.016269,1.09063 0.247871,0 0.991483,-0.148722 0.991483,-1.016269 0,-0.768399 -0.644464,-0.991482 -0.991483,-0.991482 -0.148722,0 -0.297444,0.02479 -0.396592,0.07436 0.470954,-2.1069 1.908603,-3.147956 3.420613,-3.147956 2.156474,0 3.569336,1.710307 3.569336,3.965929 0,2.156472 -1.26414,4.015502 -2.677002,5.626662 l -4.932624,5.57709 v 0.5701 h 8.725043 z" /></g><g
       id="page1-7-1"
       transform="matrix(0.280567,0,0,0.280567,35.469097,17.537179)"><path
         id="use1-65-5"
         d="m 67.250944,76.974078 -4.362522,-9.642164 c -0.173509,-0.396593 -0.297444,-0.396593 -0.371805,-0.396593 -0.02479,0 -0.148723,0 -0.42138,0.198296 l -2.35477,1.784668 c -0.322232,0.247871 -0.322232,0.322232 -0.322232,0.396593 0,0.123935 0.07436,0.272658 0.24787,0.272658 0.148723,0 0.570103,-0.347019 0.84276,-0.545315 0.148723,-0.123936 0.520528,-0.396593 0.793186,-0.59489 L 66.1851,79.180125 c 0.17351,0.396593 0.297445,0.396593 0.520529,0.396593 0.371805,0 0.446167,-0.148722 0.619676,-0.495741 l 11.253322,-23.29983 c 0.17351,-0.347019 0.17351,-0.446167 0.17351,-0.495741 0,-0.247871 -0.198297,-0.495741 -0.495741,-0.495741 -0.198297,0 -0.371806,0.123935 -0.570103,0.520528 z" /><rect
         x="78.264717"
         y="54.789703"
         height="0.991445"
         width="11.367786"
         id="rect1-04-2" /><path
         id="use2-51-2"
         d="m 88.600918,72.445612 h -0.446167 c -0.24787,1.759881 -0.446167,2.057325 -0.545315,2.206047 -0.123935,0.198297 -1.908603,0.198297 -2.255622,0.198297 H 80.5947 c 0.892334,-0.966695 2.627428,-2.726576 4.734327,-4.759114 1.51201,-1.437649 3.271891,-3.123169 3.271891,-5.577087 0,-2.924873 -2.329983,-4.610392 -4.932623,-4.610392 -2.726576,0 -4.387309,2.404344 -4.387309,4.635179 0,0.966695 0.718825,1.09063 1.016269,1.09063 0.247871,0 0.991483,-0.148722 0.991483,-1.016269 0,-0.768399 -0.644464,-0.991482 -0.991483,-0.991482 -0.148722,0 -0.297444,0.02479 -0.396592,0.07436 0.470954,-2.1069 1.908603,-3.147956 3.420613,-3.147956 2.156474,0 3.569336,1.710307 3.569336,3.965929 0,2.156473 -1.26414,4.015502 -2.677002,5.626661 l -4.932624,5.577088 v 0.570102 h 8.725043 z" /><rect
         x="57.60878"
         y="86.363747"
         height="0.991445"
         width="32.023724"
         id="rect2-2-2" /><path
         id="use3-37-4"
         d="m 78.272953,106.21694 h -0.446167 c -0.24787,1.75988 -0.446167,2.05732 -0.545315,2.20604 -0.123935,0.1983 -1.908603,0.1983 -2.255622,0.1983 h -4.759114 c 0.892334,-0.96669 2.627428,-2.72658 4.734327,-4.75911 1.51201,-1.43765 3.271891,-3.12317 3.271891,-5.577091 0,-2.924873 -2.329983,-4.610392 -4.932623,-4.610392 -2.726576,0 -4.387309,2.404344 -4.387309,4.635179 0,0.966695 0.718825,1.09063 1.016269,1.09063 0.247871,0 0.991483,-0.148722 0.991483,-1.016269 0,-0.768399 -0.644464,-0.991482 -0.991483,-0.991482 -0.148722,0 -0.297444,0.02479 -0.396592,0.07436 0.470954,-2.1069 1.908603,-3.147956 3.420613,-3.147956 2.156474,0 3.569336,1.710307 3.569336,3.965929 0,2.156472 -1.26414,4.015502 -2.677002,5.626662 l -4.932624,5.57709 v 0.5701 h 8.725043 z" /></g><g
       id="page1-51-2"
       transform="matrix(0.3062457,0,0,0.3062457,57.616298,17.079409)"><path
         id="use1-46-0"
         d="m 64.202136,53.937349 c 0,-0.520528 -0.02479,-0.545315 -0.371806,-0.545315 -0.966695,1.164991 -2.429131,1.536797 -3.817206,1.586371 -0.07436,0 -0.198296,0 -0.223083,0.04957 -0.02479,0.04957 -0.02479,0.09915 -0.02479,0.619677 0.768398,0 2.057325,-0.148723 3.048807,-0.743612 v 13.062777 c 0,0.867547 -0.04957,1.164992 -2.18126,1.164992 h -0.743612 v 0.644467 c 1.189778,-0.02479 2.429131,-0.04957 3.61891,-0.04957 1.189779,0 2.429131,0.02479 3.61891,0.04957 v -0.644463 h -0.743612 c -2.131687,0 -2.181261,-0.272658 -2.181261,-1.164992 z" /><rect
         x="57.60878"
         y="79.852409"
         height="0.991445"
         width="11.367786"
         id="rect1-0-9" /><path
         id="use2-3-0"
         d="m 67.944981,99.705599 h -0.446167 c -0.24787,1.759881 -0.446167,2.057321 -0.545315,2.206051 -0.123935,0.19829 -1.908603,0.19829 -2.255622,0.19829 h -4.759114 c 0.892334,-0.96669 2.627428,-2.726573 4.734327,-4.759111 1.51201,-1.437649 3.271891,-3.123169 3.271891,-5.577087 0,-2.924873 -2.329983,-4.610392 -4.932623,-4.610392 -2.726576,0 -4.387309,2.404344 -4.387309,4.635179 0,0.966695 0.718825,1.09063 1.016269,1.09063 0.247871,0 0.991483,-0.148722 0.991483,-1.016269 0,-0.768399 -0.644464,-0.991482 -0.991483,-0.991482 -0.148722,0 -0.297444,0.02479 -0.396592,0.07436 0.470954,-2.1069 1.908603,-3.147956 3.420613,-3.147956 2.156474,0 3.569336,1.710307 3.569336,3.965929 0,2.156473 -1.26414,4.015502 -2.677002,5.626661 l -4.932624,5.577088 v 0.5701 h 8.725043 z" /></g><g
       id="page1-09"
       transform="matrix(0.280567,0,0,0.280567,13.256101,35.95531)"><path
         id="use1-2"
         d="m 67.250944,76.974078 -4.362522,-9.642164 c -0.173509,-0.396593 -0.297444,-0.396593 -0.371805,-0.396593 -0.02479,0 -0.148723,0 -0.42138,0.198296 l -2.35477,1.784668 c -0.322232,0.247871 -0.322232,0.322232 -0.322232,0.396593 0,0.123935 0.07436,0.272658 0.24787,0.272658 0.148723,0 0.570103,-0.347019 0.84276,-0.545315 0.148723,-0.123936 0.520528,-0.396593 0.793186,-0.59489 L 66.1851,79.180125 c 0.17351,0.396593 0.297445,0.396593 0.520529,0.396593 0.371805,0 0.446167,-0.148722 0.619676,-0.495741 l 11.253322,-23.29983 c 0.17351,-0.347019 0.17351,-0.446167 0.17351,-0.495741 0,-0.247871 -0.198297,-0.495741 -0.495741,-0.495741 -0.198297,0 -0.371806,0.123935 -0.570103,0.520528 z" /><rect
         x="78.264717"
         y="54.789703"
         height="0.991445"
         width="11.367786"
         id="rect1-96" /><path
         id="use2-02"
         d="m 83.742656,67.860007 c 2.206048,0 3.172743,1.908603 3.172743,4.114651 0,2.974446 -1.586372,4.114651 -3.024021,4.114651 -1.313714,0 -3.4454,-0.644464 -4.114651,-2.553067 0.123936,0.04957 0.247871,0.04957 0.371806,0.04957 0.594889,0 1.041056,-0.396593 1.041056,-1.041056 0,-0.718825 -0.545315,-1.041056 -1.041056,-1.041056 -0.42138,0 -1.065843,0.198296 -1.065843,1.115417 0,2.280409 2.230835,4.065077 4.858262,4.065077 2.751363,0 4.858263,-2.156474 4.858263,-4.684753 0,-2.404344 -1.982965,-4.139438 -4.337735,-4.412096 1.883816,-0.396593 3.693271,-2.082112 3.693271,-4.337734 0,-1.93339 -1.958177,-3.346252 -4.189012,-3.346252 -2.255622,0 -4.238586,1.388075 -4.238586,3.371039 0,0.867547 0.644464,1.016269 0.966695,1.016269 0.520528,0 0.966695,-0.322232 0.966695,-0.966695 0,-0.644463 -0.446167,-0.966695 -0.966695,-0.966695 -0.09915,0 -0.223083,0 -0.322231,0.04957 0.718824,-1.635945 2.677001,-1.93339 3.544548,-1.93339 0.867547,0 2.503493,0.42138 2.503493,2.800937 0,0.694037 -0.09915,1.93339 -0.941908,3.02402 -0.743612,0.966696 -1.586372,1.01627 -2.404345,1.090631 -0.123935,0 -0.694037,0.04957 -0.793185,0.04957 -0.17351,0.02479 -0.272658,0.04957 -0.272658,0.223083 0,0.173509 0.02479,0.198297 0.520528,0.198297 z" /><rect
         x="57.60878"
         y="86.363747"
         height="0.991445"
         width="32.023724"
         id="rect2-8" /><path
         id="use3-4"
         d="m 73.414691,101.63133 c 2.206048,0 3.172743,1.9086 3.172743,4.11465 0,2.97445 -1.586372,4.11465 -3.024021,4.11465 -1.313714,0 -3.4454,-0.64446 -4.114651,-2.55306 0.123936,0.0496 0.247871,0.0496 0.371806,0.0496 0.594889,0 1.041056,-0.39659 1.041056,-1.04106 0,-0.71882 -0.545315,-1.04105 -1.041056,-1.04105 -0.42138,0 -1.065843,0.19829 -1.065843,1.11542 0,2.2804 2.230835,4.06507 4.858262,4.06507 2.751363,0 4.858263,-2.15647 4.858263,-4.68475 0,-2.40434 -1.982965,-4.13944 -4.337735,-4.4121 1.883816,-0.39659 3.693271,-2.082109 3.693271,-4.337731 0,-1.93339 -1.958177,-3.346252 -4.189012,-3.346252 -2.255622,0 -4.238586,1.388075 -4.238586,3.371039 0,0.867547 0.644464,1.016269 0.966695,1.016269 0.520528,0 0.966695,-0.322232 0.966695,-0.966695 0,-0.644463 -0.446167,-0.966695 -0.966695,-0.966695 -0.09915,0 -0.223083,0 -0.322231,0.04957 0.718824,-1.635945 2.677001,-1.93339 3.544548,-1.93339 0.867547,0 2.503493,0.42138 2.503493,2.800937 0,0.694037 -0.09915,1.93339 -0.941908,3.024018 -0.743612,0.9667 -1.586372,1.01627 -2.404345,1.09063 -0.123935,0 -0.694037,0.0496 -0.793185,0.0496 -0.17351,0.0248 -0.272658,0.0496 -0.272658,0.22308 0,0.17351 0.02479,0.1983 0.520528,0.1983 z" /></g><g
       id="page1-1"
       transform="matrix(0.35692458,0,0,0.35692458,50.388853,35.039693)"><path
         id="use1-5"
         d="m 66.055429,76.974078 -4.362522,-9.642164 c -0.173509,-0.396593 -0.297444,-0.396593 -0.371805,-0.396593 -0.02479,0 -0.148723,0 -0.42138,0.198296 l -2.35477,1.784668 c -0.322232,0.247871 -0.322232,0.322232 -0.322232,0.396593 0,0.123935 0.07436,0.272658 0.24787,0.272658 0.148723,0 0.570103,-0.347019 0.84276,-0.545315 0.148723,-0.123936 0.520528,-0.396593 0.793186,-0.59489 l 4.883049,10.732794 c 0.17351,0.396593 0.297445,0.396593 0.520529,0.396593 0.371805,0 0.446167,-0.148722 0.619676,-0.495741 l 11.253322,-23.29983 c 0.17351,-0.347019 0.17351,-0.446167 0.17351,-0.495741 0,-0.247871 -0.198297,-0.495741 -0.495741,-0.495741 -0.198297,0 -0.371806,0.123935 -0.570103,0.520528 z" /><rect
         x="77.069206"
         y="54.789703"
         height="0.991445"
         width="11.367786"
         id="rect1-1" /><path
         id="use2-1"
         d="m 82.547145,69.070098 c 2.206048,0 3.172743,1.908603 3.172743,4.114651 0,2.974446 -1.586372,4.114651 -3.024021,4.114651 -1.313714,0 -3.4454,-0.644464 -4.114651,-2.553067 0.123936,0.04957 0.247871,0.04957 0.371806,0.04957 0.594889,0 1.041056,-0.396593 1.041056,-1.041056 0,-0.718825 -0.545315,-1.041056 -1.041056,-1.041056 -0.42138,0 -1.065843,0.198296 -1.065843,1.115417 0,2.280409 2.230835,4.065077 4.858262,4.065077 2.751363,0 4.858263,-2.156474 4.858263,-4.684753 0,-2.404344 -1.982965,-4.139438 -4.337735,-4.412096 1.883816,-0.396593 3.693271,-2.082112 3.693271,-4.337734 0,-1.93339 -1.958177,-3.346252 -4.189012,-3.346252 -2.255622,0 -4.238586,1.388075 -4.238586,3.371039 0,0.867547 0.644464,1.016269 0.966695,1.016269 0.520528,0 0.966695,-0.322232 0.966695,-0.966695 0,-0.644463 -0.446167,-0.966695 -0.966695,-0.966695 -0.09915,0 -0.223083,0 -0.322231,0.04957 0.718824,-1.635945 2.677001,-1.93339 3.544548,-1.93339 0.867547,0 2.503493,0.42138 2.503493,2.800937 0,0.694037 -0.09915,1.93339 -0.941908,3.02402 -0.743612,0.966696 -1.586372,1.01627 -2.404345,1.090631 -0.123935,0 -0.694037,0.04957 -0.793185,0.04957 -0.17351,0.02479 -0.272658,0.04957 -0.272658,0.223083 0,0.173509 0.02479,0.198297 0.520528,0.198297 z" /></g><g
       id="page1-70"
       transform="matrix(0.39863888,0,0,0.39863888,31.048952,34.639273)"><path
         id="use1-85"
         d="m 63.006621,53.937349 c 0,-0.520528 -0.02479,-0.545315 -0.371806,-0.545315 -0.966695,1.164991 -2.429131,1.536797 -3.817206,1.586371 -0.07436,0 -0.198296,0 -0.223083,0.04957 -0.02479,0.04957 -0.02479,0.09915 -0.02479,0.619677 0.768398,0 2.057325,-0.148723 3.048807,-0.743612 v 13.062777 c 0,0.867547 -0.04957,1.164992 -2.18126,1.164992 h -0.743612 v 0.644467 c 1.189778,-0.02479 2.429131,-0.04957 3.61891,-0.04957 1.189779,0 2.429131,0.02479 3.61891,0.04957 v -0.644463 h -0.743612 c -2.131687,0 -2.181261,-0.272658 -2.181261,-1.164992 z" /></g><g
       id="page1-70-6"
       transform="matrix(0.39863888,0,0,0.39863888,31.257012,53.912049)"><path
         id="use1-85-3"
         d="m 63.006621,53.937349 c 0,-0.520528 -0.02479,-0.545315 -0.371806,-0.545315 -0.966695,1.164991 -2.429131,1.536797 -3.817206,1.586371 -0.07436,0 -0.198296,0 -0.223083,0.04957 -0.02479,0.04957 -0.02479,0.09915 -0.02479,0.619677 0.768398,0 2.057325,-0.148723 3.048807,-0.743612 v 13.062777 c 0,0.867547 -0.04957,1.164992 -2.18126,1.164992 h -0.743612 v 0.644467 c 1.189778,-0.02479 2.429131,-0.04957 3.61891,-0.04957 1.189779,0 2.429131,0.02479 3.61891,0.04957 v -0.644463 h -0.743612 c -2.131687,0 -2.181261,-0.272658 -2.181261,-1.164992 z" /></g><g
       id="page1-1-0"
       transform="matrix(0.35692458,0,0,0.35692458,7.872485,53.640819)"><path
         id="use1-5-9"
         d="m 66.055429,76.974078 -4.362522,-9.642164 c -0.173509,-0.396593 -0.297444,-0.396593 -0.371805,-0.396593 -0.02479,0 -0.148723,0 -0.42138,0.198296 l -2.35477,1.784668 c -0.322232,0.247871 -0.322232,0.322232 -0.322232,0.396593 0,0.123935 0.07436,0.272658 0.24787,0.272658 0.148723,0 0.570103,-0.347019 0.84276,-0.545315 0.148723,-0.123936 0.520528,-0.396593 0.793186,-0.59489 l 4.883049,10.732794 c 0.17351,0.396593 0.297445,0.396593 0.520529,0.396593 0.371805,0 0.446167,-0.148722 0.619676,-0.495741 l 11.253322,-23.29983 c 0.17351,-0.347019 0.17351,-0.446167 0.17351,-0.495741 0,-0.247871 -0.198297,-0.495741 -0.495741,-0.495741 -0.198297,0 -0.371806,0.123935 -0.570103,0.520528 z" /><rect
         x="77.069206"
         y="54.789703"
         height="0.991445"
         width="11.367786"
         id="rect1-1-2" /><path
         id="use2-1-4"
         d="m 82.547145,69.070098 c 2.206048,0 3.172743,1.908603 3.172743,4.114651 0,2.974446 -1.586372,4.114651 -3.024021,4.114651 -1.313714,0 -3.4454,-0.644464 -4.114651,-2.553067 0.123936,0.04957 0.247871,0.04957 0.371806,0.04957 0.594889,0 1.041056,-0.396593 1.041056,-1.041056 0,-0.718825 -0.545315,-1.041056 -1.041056,-1.041056 -0.42138,0 -1.065843,0.198296 -1.065843,1.115417 0,2.280409 2.230835,4.065077 4.858262,4.065077 2.751363,0 4.858263,-2.156474 4.858263,-4.684753 0,-2.404344 -1.982965,-4.139438 -4.337735,-4.412096 1.883816,-0.396593 3.693271,-2.082112 3.693271,-4.337734 0,-1.93339 -1.958177,-3.346252 -4.189012,-3.346252 -2.255622,0 -4.238586,1.388075 -4.238586,3.371039 0,0.867547 0.644464,1.016269 0.966695,1.016269 0.520528,0 0.966695,-0.322232 0.966695,-0.966695 0,-0.644463 -0.446167,-0.966695 -0.966695,-0.966695 -0.09915,0 -0.223083,0 -0.322231,0.04957 0.718824,-1.635945 2.677001,-1.93339 3.544548,-1.93339 0.867547,0 2.503493,0.42138 2.503493,2.800937 0,0.694037 -0.09915,1.93339 -0.941908,3.02402 -0.743612,0.966696 -1.586372,1.01627 -2.404345,1.090631 -0.123935,0 -0.694037,0.04957 -0.793185,0.04957 -0.17351,0.02479 -0.272658,0.04957 -0.272658,0.223083 0,0.173509 0.02479,0.198297 0.520528,0.198297 z" /></g><g
       id="page1-09-0"
       transform="matrix(0.280567,0,0,0.280567,55.910921,54.431334)"><path
         id="use1-2-5"
         d="m 67.250944,76.974078 -4.362522,-9.642164 c -0.173509,-0.396593 -0.297444,-0.396593 -0.371805,-0.396593 -0.02479,0 -0.148723,0 -0.42138,0.198296 l -2.35477,1.784668 c -0.322232,0.247871 -0.322232,0.322232 -0.322232,0.396593 0,0.123935 0.07436,0.272658 0.24787,0.272658 0.148723,0 0.570103,-0.347019 0.84276,-0.545315 0.148723,-0.123936 0.520528,-0.396593 0.793186,-0.59489 L 66.1851,79.180125 c 0.17351,0.396593 0.297445,0.396593 0.520529,0.396593 0.371805,0 0.446167,-0.148722 0.619676,-0.495741 l 11.253322,-23.29983 c 0.17351,-0.347019 0.17351,-0.446167 0.17351,-0.495741 0,-0.247871 -0.198297,-0.495741 -0.495741,-0.495741 -0.198297,0 -0.371806,0.123935 -0.570103,0.520528 z" /><rect
         x="78.264717"
         y="54.789703"
         height="0.991445"
         width="11.367786"
         id="rect1-96-5" /><path
         id="use2-02-4"
         d="m 83.742656,67.860007 c 2.206048,0 3.172743,1.908603 3.172743,4.114651 0,2.974446 -1.586372,4.114651 -3.024021,4.114651 -1.313714,0 -3.4454,-0.644464 -4.114651,-2.553067 0.123936,0.04957 0.247871,0.04957 0.371806,0.04957 0.594889,0 1.041056,-0.396593 1.041056,-1.041056 0,-0.718825 -0.545315,-1.041056 -1.041056,-1.041056 -0.42138,0 -1.065843,0.198296 -1.065843,1.115417 0,2.280409 2.230835,4.065077 4.858262,4.065077 2.751363,0 4.858263,-2.156474 4.858263,-4.684753 0,-2.404344 -1.982965,-4.139438 -4.337735,-4.412096 1.883816,-0.396593 3.693271,-2.082112 3.693271,-4.337734 0,-1.93339 -1.958177,-3.346252 -4.189012,-3.346252 -2.255622,0 -4.238586,1.388075 -4.238586,3.371039 0,0.867547 0.644464,1.016269 0.966695,1.016269 0.520528,0 0.966695,-0.322232 0.966695,-0.966695 0,-0.644463 -0.446167,-0.966695 -0.966695,-0.966695 -0.09915,0 -0.223083,0 -0.322231,0.04957 0.718824,-1.635945 2.677001,-1.93339 3.544548,-1.93339 0.867547,0 2.503493,0.42138 2.503493,2.800937 0,0.694037 -0.09915,1.93339 -0.941908,3.02402 -0.743612,0.966696 -1.586372,1.01627 -2.404345,1.090631 -0.123935,0 -0.694037,0.04957 -0.793185,0.04957 -0.17351,0.02479 -0.272658,0.04957 -0.272658,0.223083 0,0.173509 0.02479,0.198297 0.520528,0.198297 z" /><rect
         x="57.60878"
         y="86.363747"
         height="0.991445"
         width="32.023724"
         id="rect2-8-4" /><path
         id="use3-4-3"
         d="m 73.414691,101.63133 c 2.206048,0 3.172743,1.9086 3.172743,4.11465 0,2.97445 -1.586372,4.11465 -3.024021,4.11465 -1.313714,0 -3.4454,-0.64446 -4.114651,-2.55306 0.123936,0.0496 0.247871,0.0496 0.371806,0.0496 0.594889,0 1.041056,-0.39659 1.041056,-1.04106 0,-0.71882 -0.545315,-1.04105 -1.041056,-1.04105 -0.42138,0 -1.065843,0.19829 -1.065843,1.11542 0,2.2804 2.230835,4.06507 4.858262,4.06507 2.751363,0 4.858263,-2.15647 4.858263,-4.68475 0,-2.40434 -1.982965,-4.13944 -4.337735,-4.4121 1.883816,-0.39659 3.693271,-2.082109 3.693271,-4.337731 0,-1.93339 -1.958177,-3.346252 -4.189012,-3.346252 -2.255622,0 -4.238586,1.388075 -4.238586,3.371039 0,0.867547 0.644464,1.016269 0.966695,1.016269 0.520528,0 0.966695,-0.322232 0.966695,-0.966695 0,-0.644463 -0.446167,-0.966695 -0.966695,-0.966695 -0.09915,0 -0.223083,0 -0.322231,0.04957 0.718824,-1.635945 2.677001,-1.93339 3.544548,-1.93339 0.867547,0 2.503493,0.42138 2.503493,2.800937 0,0.694037 -0.09915,1.93339 -0.941908,3.024018 -0.743612,0.9667 -1.586372,1.01627 -2.404345,1.09063 -0.123935,0 -0.694037,0.0496 -0.793185,0.0496 -0.17351,0.0248 -0.272658,0.0496 -0.272658,0.22308 0,0.17351 0.02479,0.1983 0.520528,0.1983 z" /></g></g></svg>
